<svg xmlns="http://www.w3.org/2000/svg" version="1.1" xmlns:xlink="http://www.w3.org/1999/xlink" xmlns:svgjs="http://svgjs.dev/svgjs" width="1500" height="1500" viewBox="0 0 1500 1500"><rect width="1500" height="1500" fill="#efe1c6"></rect><g transform="matrix(0.6666666666666666,0,0,0.6666666666666666,250.00000000000017,187.66666666666674)"><svg viewBox="0 0 320 360" data-background-color="#efe1c6" preserveAspectRatio="xMidYMid meet" height="1687" width="1500" xmlns="http://www.w3.org/2000/svg" xmlns:xlink="http://www.w3.org/1999/xlink"><g id="tight-bounds" transform="matrix(1,0,0,1,0,0)"><svg viewBox="0 0 320 360" height="360" width="320"><g><svg></svg></g><g><svg viewBox="0 0 320 360" height="360" width="320"><g><path d="M20.961 227.22l3.726 4.658-1.863-6.056c-0.466-2.795-3.726 0.466-1.863 1.398M25.153 224.425c1.397 2.329 2.795 4.658 2.795 6.987 0 3.261 2.795 4.658 5.123 5.589-3.261-3.726-5.124-13.974-7.918-12.576M204.017 26.929c7.918 0 15.371-0.932 23.756 0.931 20.495 5.124 37.729 15.371 49.374 29.811l32.606 52.169c1.397 13.042 4.192 27.482 3.726 43.319 3.261 0 2.795-4.658 6.521-5.59-3.726 9.316-5.59 20.961-6.521 34.469-2.329-7.453 0-18.632 0.466-24.687-3.261 5.124-5.124 1.397-5.124-0.932 0.466-3.726-1.397-3.261-2.795-4.658-5.124-4.658-8.384-9.782-12.11-17.7 2.329-6.055 2.795-14.905-4.658-19.563-2.329-1.397-5.124-3.726-6.521-7.453-1.863-5.124-5.124-11.179-4.193-19.097 0.466-2.329-6.987 5.124-11.179 1.863-18.166-12.576-36.332-27.016-58.224-39.127-11.645 0-20.029-4.192-24.221-9.316-3.726-4.658-0.932-10.713 4.658-11.179 3.261 0 6.987-0.932 9.782 0.932 0.466-1.863 2.329-4.192 4.657-4.192M157.904 16.215l0.932 0.466c4.658 0.932 6.987 7.453 12.11 5.124 0 3.261 0.466 6.521-0.466 8.85-1.397 3.726-5.59 3.726-8.85 3.726-31.208-1.863-49.374 11.179-68.471 22.358-5.124 3.261-10.713 5.59-14.906 9.782-20.029 18.632-41.921 35.866-47.045 70.335l-4.192 38.195c-0.466 4.192-5.124 8.384-4.192 13.508l3.26 22.824c-3.261-3.261-5.124 0.932-4.192 2.795 0.466 1.397 2.329 6.055 5.124 1.863 3.726 6.987 7.453 20.495 12.576 26.55 15.837 18.632 36.332 35.4 53.101 52.169 4.192-0.932 7.453-0.932 8.384-3.727 1.397 2.795-1.397 5.59-3.726 6.056 7.453 4.658 15.837 8.85 27.016 9.781 14.44 0.932 27.948 3.261 40.524 6.522 6.521-1.863 13.042-2.795 20.029-3.261 2.329 0 3.726-3.726 6.521-4.658l0.466-4.658c2.795 4.192 2.329-1.397 0.466-4.192 3.261 2.795 4.192 5.124 5.589 6.987 0-1.397 3.726-6.521 3.727-0.466l0.931-6.055c1.397-0.932 1.863 5.124 3.261 0.931 1.397-4.192 4.192-0.932 6.987-2.329-0.932 1.863-0.466 5.59 2.794 3.261l3.727-3.261c2.329 5.59 6.055 3.261 7.918 2.329 20.495-13.042 40.99-28.413 60.553-43.784l-0.466 6.055 2.329-7.453c2.329 2.329 4.192 0.466 5.124-0.931 2.795-4.658 6.521-9.316 12.577-13.508-7.453 20.029-16.303 35.866-27.482 48.908l-4.658 5.59c0 3.261-0.932 7.453-4.658 7.918-1.863 0.466-5.59-0.932-8.384 1.863-1.397 1.863 3.261 5.59-0.466 2.795-3.261-2.329-6.521 0-10.248 0.932-2.795 0.932 1.863 3.726 2.795 5.589 0.932 1.863 1.863 3.726 1.398 6.056l-5.124-5.59c-6.055 3.261-9.782 9.316-14.906 13.974-2.329 1.863-1.397 5.124-1.397 7.918-3.261 0-6.987-0.932-8.85 0.932-1.397 1.863-0.932 4.658-0.932 7.453-4.658-0.466-5.124-7.453-9.315-6.056-4.192 0.932-8.85 1.397-12.577 3.727 2.795 5.59-4.658 2.329-3.726 3.26-6.987-4.192-13.042-7.453-20.495-4.658-15.837-5.124-35.4-2.795-49.84-0.931 0-2.329 0.466-4.658-0.466-5.124-0.932 2.329-3.726 1.397-3.26 1.397-8.85-6.055-17.7-9.782-27.016-14.905-8.384 0.932-16.303-3.261-18.632-5.59-6.521-6.055-13.974-2.795-20.029-4.192-13.042-3.261-17.7-16.769-19.098-26.084-0.932-4.658-4.658-6.521-6.055-6.056-6.055-19.563-15.371-37.263-22.824-55.429-1.863-4.658-1.397-9.316-1.397-14.44 2.329 0.932 4.658 0.466 4.192-2.794-2.329-15.371-7.918-27.016-13.974-38.195 3.261-15.837 3.726-34.469 11.179-48.443 6.521-12.576 18.632-19.098 27.016-29.811 2.795-3.726 2.795-8.85 5.59-12.11 9.316-9.316 18.632-19.098 28.879-27.482 4.658-3.726 10.247 0 17.234-1.397 2.329-8.384 11.645-15.837 20.495-13.508 3.726 0.932 11.179-8.85 13.508-9.782 3.726-1.397 1.863 3.726 1.863 6.987 8.85-6.987 20.961-10.713 32.14-14.906" fill="#1c70ec" fill-rule="nonzero" stroke="none" stroke-width="1" stroke-linecap="butt" stroke-linejoin="miter" stroke-miterlimit="10" stroke-dasharray="" stroke-dashoffset="0" font-family="none" font-weight="none" font-size="none" text-anchor="none" style="mix-blend-mode: normal" data-fill-palette-color="tertiary"></path></g><g transform="matrix(1,0,0,1,70,90)"><svg viewBox="0 0 180 180" height="180" width="180"><g><svg viewBox="0 0 180 180" height="180" width="180"><g><svg viewBox="0 0 180 180" height="180" width="180"><g id="textblocktransform"><svg viewBox="0 0 180 180" height="180" width="180" id="textblock"><g><svg viewBox="0 0 180 180" height="180" width="180"><g transform="matrix(1,0,0,1,47.57359312880715,47.57359312880715)"><svg viewBox="0 0 84.8528137423857 84.8528137423857" height="84.8528137423857" width="84.8528137423857"><g id="icon-0"><circle r="42" cx="42.42640687119285" cy="42.42640687119285" fill="#fe7100" data-fill-palette-color="accent"></circle></g></svg></g><g id="text-0"><path d="M20.466 68.908v0c-0.258 0.79-0.612 1.42-1.064 1.89-0.445 0.472-1.056 0.772-1.833 0.9-0.771 0.13-1.75 0.091-2.938-0.116-1.194-0.209-2.659-0.597-4.395-1.163v0c-2.144-0.699-3.79-1.424-4.94-2.173-1.143-0.747-1.876-1.552-2.198-2.413-0.314-0.865-0.3-1.821 0.041-2.868v0c0.252-0.771 0.608-1.386 1.07-1.846 0.46-0.453 1.071-0.743 1.834-0.869 0.769-0.124 1.721-0.087 2.856 0.11 1.14 0.205 2.531 0.576 4.173 1.112v0c2.225 0.726 3.932 1.456 5.121 2.191 1.183 0.733 1.944 1.525 2.283 2.377 0.339 0.853 0.336 1.809-0.01 2.868zM18.456 68.18v0c0.194-0.595 0.123-1.132-0.213-1.609-0.337-0.477-0.982-0.955-1.936-1.433-0.958-0.486-2.252-0.995-3.881-1.526v0c-1.611-0.526-2.917-0.879-3.92-1.06-1-0.188-1.762-0.19-2.286-0.007-0.522 0.176-0.877 0.553-1.066 1.129v0c-0.184 0.564-0.109 1.098 0.227 1.603 0.337 0.498 0.996 0.998 1.976 1.498 0.975 0.498 2.333 1.032 4.076 1.6v0c1.498 0.489 2.73 0.814 3.697 0.977 0.96 0.161 1.711 0.145 2.252-0.045 0.533-0.187 0.891-0.562 1.074-1.127z" fill="#2e74db" data-fill-palette-color="primary"></path><path d="M44.289 34.503v0l-6.878-9.997c0.32-0.524 0.705-1.034 1.157-1.529 0.452-0.495 0.966-0.94 1.541-1.336v0c0.82-0.564 1.544-0.798 2.17-0.701 0.625 0.106 1.221 0.46 1.788 1.062 0.568 0.593 1.174 1.357 1.817 2.292v0l4.025 5.849c0.075 0.109 0.097 0.205 0.068 0.29-0.024 0.081-0.152 0.209-0.384 0.384-0.222 0.177-0.608 0.454-1.157 0.832v0l-5.365-7.797c-0.239-0.348-0.444-0.611-0.615-0.789-0.171-0.179-0.361-0.264-0.572-0.255-0.21 0.009-0.478 0.125-0.804 0.349v0c-0.234 0.161-0.448 0.349-0.644 0.564-0.187 0.217-0.362 0.473-0.527 0.77v0l5.853 8.506c0.075 0.109 0.097 0.205 0.068 0.29-0.024 0.081-0.147 0.205-0.368 0.373-0.222 0.177-0.613 0.458-1.173 0.843zM48.436 31.649v0l-6.284-9.133c-0.083-0.399-0.018-0.84 0.194-1.322 0.209-0.488 0.515-0.967 0.92-1.438 0.405-0.47 0.838-0.865 1.299-1.182v0c0.701-0.482 1.298-0.725 1.792-0.728 0.488 0 0.933 0.187 1.333 0.559 0.401 0.373 0.818 0.874 1.251 1.504v0l5.091 7.398c0.075 0.109 0.1 0.203 0.075 0.284-0.024 0.081-0.152 0.209-0.384 0.384-0.228 0.181-0.613 0.458-1.156 0.832v0l-5.331-7.748c-0.348-0.505-0.663-0.824-0.947-0.957-0.289-0.129-0.643-0.05-1.061 0.237v0c-0.223 0.153-0.435 0.339-0.637 0.558-0.202 0.219-0.365 0.487-0.49 0.806v0l5.808 8.44c0.075 0.109 0.105 0.2 0.092 0.273-0.014 0.073-0.133 0.196-0.359 0.368-0.228 0.181-0.63 0.469-1.206 0.865z" fill="#2e74db" data-fill-palette-color="primary"></path><path d="M90.84 18.596v0l0.869-17.731c0.016-0.323 0.083-0.544 0.2-0.663 0.118-0.12 0.329-0.185 0.634-0.197 0.304-0.012 0.736-0.004 1.296 0.024v0l-0.337 6.885c0.439-0.335 0.953-0.594 1.543-0.776 0.583-0.183 1.148-0.261 1.694-0.234v0c0.553 0.027 0.983 0.147 1.29 0.36 0.306 0.22 0.514 0.497 0.623 0.833 0.109 0.342 0.153 0.707 0.134 1.096v0c-0.026 0.54-0.126 1.017-0.298 1.431-0.172 0.421-0.385 0.79-0.638 1.107-0.253 0.318-0.501 0.586-0.743 0.805-0.241 0.213-0.447 0.374-0.618 0.485v0c0.393 0.191 0.758 0.486 1.096 0.885 0.337 0.399 0.616 0.892 0.838 1.477 0.215 0.591 0.337 1.277 0.365 2.058v0c0.018 0.305 0.015 0.638-0.009 0.999-0.025 0.368-0.073 0.746-0.145 1.132v0c-0.02 0.131-0.067 0.224-0.142 0.28-0.069 0.056-0.262 0.083-0.578 0.081-0.31-0.009-0.853-0.032-1.631-0.07v0c0.096-0.622 0.157-1.194 0.183-1.714 0.025-0.514 0.015-0.983-0.03-1.408v0c-0.061-0.511-0.158-0.948-0.292-1.311-0.141-0.363-0.304-0.659-0.492-0.886-0.194-0.221-0.404-0.373-0.631-0.456-0.227-0.09-0.46-0.115-0.699-0.074v0c-0.153 0.026-0.32 0.073-0.502 0.144-0.181 0.064-0.333 0.126-0.455 0.185-0.122 0.067-0.183 0.1-0.183 0.1v0l-0.238 4.85c-0.006 0.132-0.041 0.222-0.102 0.273-0.062 0.05-0.231 0.074-0.509 0.074-0.284 0.006-0.782-0.009-1.493-0.044zM93.408 8.82l-0.154 3.151c0.605-0.228 1.146-0.482 1.622-0.762 0.47-0.287 0.846-0.632 1.13-1.034 0.284-0.402 0.438-0.863 0.463-1.383v0c0.034-0.698-0.262-1.062-0.887-1.093v0c-0.356-0.017-0.716 0.064-1.081 0.244-0.365 0.174-0.729 0.466-1.093 0.877z" fill="#2e74db" data-fill-palette-color="primary"></path><path d="M135.827 34.943v0c-0.374-0.293-0.705-0.602-0.994-0.929-0.298-0.325-0.498-0.696-0.6-1.11-0.107-0.419-0.085-0.891 0.067-1.417 0.157-0.522 0.508-1.13 1.053-1.826v0c0.545-0.696 1.058-1.202 1.541-1.519 0.487-0.322 0.949-0.501 1.386-0.535 0.437-0.034 0.847 0.035 1.23 0.209 0.382 0.165 0.741 0.379 1.079 0.644v0c0.213 0.167 0.446 0.383 0.699 0.647 0.253 0.265 0.444 0.524 0.573 0.776v0c0 0 0.073-0.093 0.22-0.28 0.146-0.187 0.317-0.405 0.512-0.654 0.195-0.249 0.366-0.467 0.512-0.655v0c0.248-0.317 0.388-0.597 0.419-0.84 0.03-0.253-0.014-0.484-0.134-0.695-0.125-0.215-0.322-0.428-0.592-0.639v0c-0.519-0.406-1.054-0.75-1.605-1.031-0.556-0.285-1.029-0.483-1.418-0.595v0c0.033-0.234 0.101-0.444 0.205-0.631 0.104-0.186 0.209-0.347 0.315-0.482v0c0.073-0.093 0.169-0.178 0.286-0.253 0.117-0.085 0.234-0.122 0.353-0.114v0c0.262 0.029 0.714 0.195 1.356 0.498 0.648 0.306 1.351 0.756 2.109 1.349v0c0.867 0.679 1.357 1.352 1.471 2.019 0.114 0.667-0.185 1.455-0.895 2.363v0l-0.836 1.067c-0.593 0.758-1.194 1.519-1.8 2.283-0.607 0.764-1.182 1.478-1.726 2.141-0.544 0.663-1.031 1.232-1.462 1.706v0c-0.396-0.05-0.884-0.186-1.466-0.406-0.585-0.215-1.205-0.579-1.858-1.091zM137.057 33.708v0c0.213 0.167 0.447 0.295 0.702 0.387 0.25 0.087 0.453 0.116 0.61 0.088v0c0.193-0.193 0.438-0.474 0.736-0.844 0.298-0.37 0.615-0.758 0.95-1.165 0.326-0.406 0.632-0.791 0.916-1.154v0c-0.082-0.173-0.204-0.344-0.365-0.512-0.156-0.164-0.302-0.299-0.437-0.405v0c-0.213-0.167-0.428-0.298-0.647-0.393-0.218-0.096-0.447-0.124-0.686-0.086-0.245 0.034-0.51 0.154-0.795 0.358-0.294 0.205-0.614 0.528-0.96 0.969v0c-0.28 0.358-0.479 0.676-0.596 0.953-0.122 0.273-0.172 0.519-0.149 0.737 0.027 0.222 0.102 0.415 0.225 0.578 0.128 0.168 0.294 0.331 0.496 0.489z" fill="#2e74db" data-fill-palette-color="primary"></path><path d="M159.807 68.59v0l11.273-3.581c0.487 0.357 0.918 0.788 1.292 1.291 0.368 0.506 0.647 1.057 0.837 1.654v0c0.202 0.635 0.258 1.105 0.168 1.41-0.092 0.299-0.307 0.502-0.647 0.61v0c-0.126 0.04-0.303 0.079-0.533 0.117-0.23 0.038-0.462 0.05-0.695 0.034v0c0.038-0.206 0.052-0.414 0.04-0.625-0.012-0.211-0.05-0.42-0.116-0.627v0c-0.088-0.276-0.221-0.542-0.399-0.797-0.178-0.255-0.394-0.466-0.648-0.635v0l-9.554 3.015c-0.126 0.04-0.223 0.04-0.291-0.001-0.068-0.041-0.153-0.197-0.253-0.47-0.107-0.271-0.265-0.736-0.474-1.395z" fill="#2e74db" data-fill-palette-color="primary"></path><path d="M2.751 92.793c0-3.943 3.197-7.14 7.14-7.141 3.943 0 7.14 3.197 7.14 7.141 0 3.943-3.197 7.14-7.14 7.14-3.943 0-7.14-3.197-7.14-7.14z" fill="#2e74db" data-fill-palette-color="primary"></path><path d="M162.969 92.793c0-3.943 3.197-7.14 7.14-7.141 3.943 0 7.14 3.197 7.14 7.141 0 3.943-3.197 7.14-7.14 7.14-3.943 0-7.14-3.197-7.14-7.14z" fill="#2e74db" data-fill-palette-color="primary"></path></g><g id="text-1"><path d="M7.681 121.149v0c-0.274-0.833-0.367-1.587-0.276-2.262 0.084-0.673 0.413-1.306 0.988-1.898 0.569-0.59 1.424-1.167 2.565-1.73 1.134-0.561 2.615-1.143 4.444-1.745v0c2.248-0.741 4.088-1.149 5.521-1.225 1.437-0.085 2.559 0.139 3.366 0.672 0.801 0.534 1.382 1.35 1.743 2.445v0c0.268 0.814 0.35 1.558 0.245 2.231-0.105 0.673-0.443 1.298-1.017 1.876-0.565 0.582-1.391 1.142-2.476 1.68-1.094 0.534-2.503 1.085-4.225 1.652v0c-2.336 0.77-4.234 1.214-5.693 1.334-1.462 0.114-2.6-0.084-3.414-0.593-0.813-0.509-1.404-1.322-1.771-2.437zM9.838 120.522v0c0.206 0.626 0.598 1.035 1.175 1.227 0.577 0.192 1.421 0.195 2.533 0.009 1.112-0.186 2.52-0.559 4.223-1.121v0c1.697-0.559 3.024-1.073 3.981-1.54 0.963-0.47 1.61-0.94 1.941-1.41 0.329-0.476 0.393-1.018 0.193-1.625v0c-0.194-0.589-0.588-0.993-1.181-1.215-0.598-0.213-1.466-0.225-2.605-0.037-1.139 0.188-2.62 0.582-4.442 1.182v0c-1.572 0.518-2.816 1.008-3.733 1.469-0.917 0.462-1.544 0.939-1.882 1.432-0.331 0.491-0.399 1.034-0.203 1.629z" fill="#1c70ec" data-fill-palette-color="secondary"></path><path d="M36.9 161.807v0l7.193-10.513c0.633 0.114 1.279 0.296 1.938 0.547 0.655 0.257 1.285 0.591 1.889 1.005v0c0.865 0.592 1.366 1.214 1.503 1.867 0.137 0.653 0.017 1.37-0.358 2.151-0.37 0.786-0.891 1.671-1.565 2.656v0l-4.205 6.146c-0.078 0.114-0.162 0.173-0.252 0.176-0.093 0.008-0.269-0.068-0.527-0.229-0.261-0.155-0.678-0.428-1.249-0.819v0l5.607-8.195c0.253-0.37 0.433-0.674 0.54-0.912 0.107-0.238 0.118-0.459 0.033-0.661-0.089-0.197-0.305-0.412-0.648-0.647v0c-0.245-0.168-0.51-0.305-0.796-0.412-0.277-0.109-0.595-0.187-0.955-0.234v0l-6.12 8.946c-0.078 0.114-0.162 0.173-0.252 0.175-0.093 0.008-0.263-0.064-0.51-0.217-0.256-0.151-0.678-0.428-1.266-0.83zM41.267 164.794v0l6.573-9.607c0.354-0.237 0.809-0.341 1.364-0.313 0.554 0.019 1.139 0.14 1.754 0.362 0.619 0.216 1.171 0.49 1.655 0.821v0c0.735 0.503 1.195 0.997 1.382 1.484 0.19 0.481 0.176 0.987-0.043 1.516-0.213 0.533-0.547 1.132-1.001 1.796v0l-5.322 7.779c-0.078 0.114-0.159 0.175-0.244 0.181-0.093 0.008-0.269-0.068-0.526-0.229-0.261-0.155-0.678-0.428-1.25-0.819v0l5.579-8.154c0.361-0.528 0.551-0.957 0.57-1.288 0.022-0.336-0.187-0.655-0.628-0.957v0c-0.234-0.16-0.497-0.296-0.788-0.407-0.291-0.111-0.615-0.169-0.972-0.173v0l-6.075 8.88c-0.078 0.114-0.157 0.176-0.236 0.187-0.077 0.019-0.244-0.051-0.502-0.212-0.256-0.151-0.686-0.433-1.29-0.847z" fill="#1c70ec" data-fill-palette-color="secondary"></path><path d="M91.553 180v0l-0.958-18.618c-0.017-0.336 0.03-0.573 0.142-0.71 0.105-0.137 0.318-0.228 0.64-0.271 0.315-0.043 0.768-0.079 1.361-0.109v0l0.371 7.22c0.422-0.398 0.93-0.721 1.525-0.97 0.594-0.255 1.175-0.397 1.74-0.426v0c0.586-0.03 1.049 0.052 1.389 0.245 0.34 0.2 0.585 0.468 0.735 0.804 0.156 0.342 0.245 0.717 0.266 1.125v0c0.029 0.573-0.027 1.084-0.169 1.534-0.135 0.456-0.319 0.861-0.551 1.217-0.232 0.362-0.461 0.667-0.686 0.916-0.225 0.256-0.426 0.451-0.604 0.586v0c0.437 0.156 0.854 0.422 1.25 0.797 0.396 0.382 0.738 0.87 1.025 1.463 0.288 0.593 0.489 1.295 0.604 2.108v0c0.05 0.321 0.081 0.673 0.094 1.054 0.006 0.383-0.006 0.779-0.038 1.191v0c-0.006 0.139-0.044 0.243-0.113 0.312-0.069 0.063-0.268 0.11-0.596 0.14-0.329 0.024-0.902 0.056-1.719 0.098v0c0.039-0.662 0.044-1.263 0.017-1.803-0.028-0.547-0.09-1.038-0.185-1.476v0c-0.12-0.529-0.268-0.977-0.446-1.343-0.177-0.361-0.377-0.647-0.598-0.861-0.229-0.213-0.464-0.352-0.705-0.419-0.248-0.066-0.495-0.067-0.743-0.002v0c-0.156 0.041-0.325 0.106-0.505 0.195-0.187 0.095-0.337 0.179-0.453 0.251-0.121 0.079-0.182 0.118-0.182 0.118v0l0.263 5.097c0.007 0.138-0.021 0.235-0.085 0.291-0.056 0.062-0.232 0.108-0.527 0.136-0.289 0.035-0.808 0.071-1.559 0.11zM93.212 169.517l0.17 3.298c0.605-0.295 1.14-0.617 1.604-0.963 0.464-0.341 0.824-0.736 1.078-1.185 0.254-0.455 0.367-0.956 0.338-1.503v0c-0.038-0.731-0.386-1.079-1.044-1.045v0c-0.375 0.019-0.745 0.141-1.11 0.364-0.358 0.223-0.704 0.568-1.036 1.034z" fill="#1c70ec" data-fill-palette-color="secondary"></path><path d="M144.232 161.268v0c-0.389 0.305-0.787 0.567-1.194 0.785-0.407 0.218-0.836 0.328-1.287 0.33-0.451 0.002-0.924-0.143-1.42-0.432-0.501-0.286-1.036-0.792-1.605-1.519v0c-0.573-0.732-0.961-1.387-1.163-1.966-0.198-0.573-0.262-1.088-0.193-1.545 0.074-0.451 0.246-0.851 0.518-1.198 0.272-0.347 0.582-0.657 0.93-0.93v0c0.228-0.179 0.509-0.366 0.843-0.56 0.334-0.194 0.643-0.324 0.928-0.387v0c0 0-0.077-0.099-0.232-0.296-0.155-0.197-0.333-0.426-0.537-0.685-0.203-0.259-0.38-0.485-0.531-0.677v0c-0.264-0.337-0.518-0.554-0.759-0.649-0.242-0.095-0.49-0.106-0.743-0.034-0.244 0.074-0.506 0.22-0.786 0.44v0c-0.545 0.427-1.033 0.889-1.464 1.387-0.43 0.488-0.748 0.917-0.952 1.286v0c-0.233-0.094-0.432-0.214-0.597-0.361-0.164-0.156-0.301-0.304-0.412-0.445v0c-0.077-0.099-0.142-0.219-0.195-0.362-0.054-0.133-0.06-0.263-0.016-0.389v0c0.092-0.257 0.373-0.673 0.842-1.25 0.47-0.586 1.105-1.193 1.904-1.819v0c0.913-0.716 1.723-1.045 2.43-0.988 0.712 0.053 1.44 0.555 2.185 1.505v0l0.878 1.121c0.622 0.794 1.248 1.598 1.877 2.411 0.62 0.813 1.201 1.576 1.744 2.29 0.542 0.723 0.999 1.366 1.373 1.928v0c-0.146 0.391-0.407 0.855-0.782 1.391-0.366 0.538-0.894 1.077-1.584 1.618zM143.281 159.702v0c0.223-0.175 0.415-0.379 0.574-0.614 0.151-0.235 0.231-0.432 0.241-0.59v0c-0.148-0.253-0.372-0.576-0.671-0.969-0.304-0.398-0.621-0.82-0.953-1.264-0.332-0.435-0.647-0.842-0.944-1.221v0c-0.197 0.037-0.399 0.116-0.606 0.237-0.216 0.119-0.395 0.234-0.535 0.343v0c-0.223 0.175-0.408 0.361-0.554 0.56-0.155 0.197-0.244 0.426-0.266 0.686-0.026 0.255 0.029 0.555 0.165 0.901 0.137 0.345 0.386 0.749 0.748 1.211v0c0.297 0.379 0.57 0.663 0.819 0.853 0.249 0.19 0.489 0.304 0.72 0.341 0.231 0.028 0.446-0.002 0.645-0.091 0.204-0.093 0.409-0.22 0.617-0.383z" fill="#1c70ec" data-fill-palette-color="secondary"></path><path d="M172.132 121.217v0l-11.82-3.788c-0.201-0.604-0.31-1.235-0.328-1.891-0.01-0.661 0.086-1.305 0.287-1.933v0c0.211-0.659 0.447-1.093 0.707-1.3 0.267-0.205 0.576-0.252 0.928-0.139v0c0.138 0.044 0.314 0.121 0.528 0.231 0.222 0.106 0.429 0.238 0.621 0.396v0c-0.159 0.15-0.297 0.32-0.414 0.512-0.115 0.185-0.207 0.387-0.277 0.607v0c-0.093 0.289-0.142 0.595-0.149 0.918-0.002 0.332 0.053 0.644 0.167 0.936v0l10.012 3.24c0.132 0.042 0.213 0.103 0.243 0.181 0.038 0.075 0.018 0.258-0.062 0.552-0.074 0.295-0.221 0.788-0.443 1.478z" fill="#1c70ec" data-fill-palette-color="secondary"></path></g></svg></g></svg></g></svg></g></svg></g></svg></g></svg></g><defs></defs></svg><rect width="320" height="360" fill="none" stroke="none" visibility="hidden"></rect></g></svg></g></svg>